<?xml version="1.0" encoding="UTF-8"?>
<svg version="1.1" xmlns="http://www.w3.org/2000/svg" width="552" height="255">
<path d="M0 0 C0.94997335 -0.00199105 1.89994669 -0.0039821 2.87870711 -0.00603348 C3.92441557 -0.00312064 4.97012404 -0.0002078 6.04752064 0.00279331 C7.71132958 0.00151167 7.71132958 0.00151167 9.40875083 0.00020415 C13.14454285 -0.00144969 16.88029046 0.00406918 20.61607838 0.00952244 C23.2864387 0.00980436 25.95679627 0.00969057 28.62715626 0.00907993 C34.38605367 0.0085551 40.14493977 0.01169766 45.90383434 0.01731777 C54.23027035 0.02543827 62.55670088 0.02804856 70.88314042 0.02930576 C84.39161633 0.03149541 97.90008621 0.03815316 111.40855885 0.04760838 C124.53225645 0.05678473 137.65595243 0.06386447 150.7796526 0.06811619 C151.58834023 0.06837891 152.39702786 0.06864164 153.23022117 0.06891232 C157.28709257 0.07021734 161.34396398 0.07148105 165.40083539 0.07272422 C199.06674437 0.08309413 232.73264589 0.10078434 266.39854908 0.12304783 C266.39854908 5.07304783 266.39854908 10.02304783 266.39854908 15.12304783 C138.19354908 15.61804783 138.19354908 15.61804783 7.39854908 16.12304783 C7.39854908 38.23304783 7.39854908 60.34304783 7.39854908 83.12304783 C11.12088918 84.36382786 14.58650941 84.26860242 18.46104908 84.24804783 C19.19388111 84.25191502 19.92671314 84.2557822 20.6817522 84.25976658 C24.66975096 84.3340054 24.66975096 84.3340054 28.39854908 83.12304783 C28.72854908 77.51304783 29.05854908 71.90304783 29.39854908 66.12304783 C36.98854908 66.12304783 44.57854908 66.12304783 52.39854908 66.12304783 C52.46042408 69.62929783 52.52229908 73.13554783 52.58604908 76.74804783 C52.6270171 78.38894382 52.6270171 78.38894382 52.66881275 80.06298923 C52.71520222 85.50103262 52.54636393 89.46488002 49.39854908 94.12304783 C45.31258604 97.90256364 42.25788877 99.23452582 36.74693775 99.30004978 C35.8055344 99.31288502 34.86413105 99.32572025 33.89420033 99.33894444 C32.8785651 99.34633137 31.86292988 99.3537183 30.81651783 99.36132908 C29.76958256 99.36940083 28.72264729 99.37747257 27.6439867 99.38578892 C25.42734397 99.39962301 23.21068001 99.41034818 20.99400806 99.41821384 C17.60956311 99.43542823 14.22609461 99.47932154 10.84190845 99.52343845 C8.68761876 99.53356547 6.53332076 99.54208154 4.37901783 99.54882908 C3.3694553 99.56633717 2.35989277 99.58384525 1.31973743 99.60188389 C-4.64939735 99.58351829 -8.06039375 99.10772157 -12.60145092 95.12304783 C-16.41343059 89.86514483 -16.72812428 85.4723328 -16.76258373 79.07885838 C-16.76754864 78.37750767 -16.77251354 77.67615696 -16.7776289 76.9535532 C-16.79220416 74.63894758 -16.79904492 72.32441051 -16.80457592 70.00976658 C-16.8103314 68.39557488 -16.81608908 66.78138319 -16.82184887 65.16719151 C-16.83234581 61.78373999 -16.83819695 58.40031215 -16.8416853 55.01684666 C-16.84716586 50.69268402 -16.87118988 46.3688369 -16.89965725 42.0447731 C-16.91833048 38.7100799 -16.92349173 35.37546199 -16.92502117 32.04072094 C-16.9280379 30.44719627 -16.93603319 28.85367262 -16.94920635 27.26019955 C-16.96636479 25.02503284 -16.96436318 22.7906277 -16.95789623 20.55542088 C-16.96154186 19.28619282 -16.96518749 18.01696476 -16.9689436 16.70927525 C-16.48914583 12.02710327 -15.23649969 8.02208884 -12.10145092 4.38086033 C-7.95462935 1.24914612 -5.14926708 -0.00237841 0 0 Z " fill="#015886" transform="translate(24.60145092010498,7.876952171325684)"/>
<path d="M0 0 C1.30241456 -0.00128164 1.30241456 -0.00128164 2.63114053 -0.00258917 C5.55158452 -0.00424124 8.47197155 0.00127299 11.39241028 0.00672913 C13.48149616 0.00701108 15.57058214 0.0068531 17.65966797 0.00628662 C23.34113594 0.00599898 29.02258293 0.01189042 34.70404601 0.01886058 C40.63778945 0.02509957 46.57153333 0.02569835 52.50527954 0.02688599 C63.74621231 0.02999769 74.98713539 0.03820892 86.22806388 0.04823548 C99.02353563 0.0594016 111.81900783 0.06490833 124.61448324 0.06993091 C150.93995974 0.08039165 177.26542763 0.09798799 203.59089661 0.12025452 C203.59089661 5.07025452 203.59089661 10.02025452 203.59089661 15.12025452 C137.92089661 15.45025452 72.25089661 15.78025452 4.59089661 16.12025452 C4.59089661 20.74025452 4.59089661 25.36025452 4.59089661 30.12025452 C7.70946123 33.23881914 9.94806544 34.36335759 13.94636536 36.11634827 C14.56683243 36.39116531 15.1872995 36.66598236 15.8265686 36.9491272 C17.80768648 37.82525196 19.79277444 38.69189305 21.77839661 39.55775452 C45.44453047 49.95337689 45.44453047 49.95337689 48.59089661 56.12025452 C49.96850351 61.66058012 49.81334272 67.1941547 49.84089661 72.87025452 C49.86152161 73.91697327 49.88214661 74.96369202 49.90339661 76.04212952 C49.93552276 82.46735959 49.50651926 88.29220266 46.59089661 94.12025452 C42.69786064 98.01329048 39.45081257 99.23571175 34.03108215 99.28138733 C32.64900826 99.29579865 32.64900826 99.29579865 31.23901367 99.3105011 C29.74837151 99.31687592 29.74837151 99.31687592 28.22761536 99.32337952 C27.20287613 99.32907959 26.1781369 99.33477966 25.12234497 99.34065247 C22.95277438 99.35010166 20.78318943 99.35663613 18.61360168 99.36048889 C15.30174065 99.37018616 11.99050239 99.40120733 8.67878723 99.43275452 C6.57006695 99.43928557 4.46134224 99.44453564 2.35261536 99.44837952 C1.36492661 99.46072632 0.37723785 99.47307312 -0.64038086 99.48579407 C-5.98833648 99.46855184 -9.8076453 99.16517 -14.40910339 96.12025452 C-18.36002718 91.84898556 -19.53997913 88.76175758 -19.50675964 83.01478577 C-19.50426208 82.12895813 -19.50176453 81.24313049 -19.49919128 80.33045959 C-19.49008728 79.20921692 -19.48098328 78.08797424 -19.47160339 76.93275452 C-19.45097839 73.36462952 -19.43035339 69.79650452 -19.40910339 66.12025452 C-11.81910339 66.12025452 -4.22910339 66.12025452 3.59089661 66.12025452 C4.08589661 74.53525452 4.08589661 74.53525452 4.59089661 83.12025452 C7.73395099 84.69178171 11.0821706 84.26344041 14.52839661 84.24525452 C15.62184387 84.2510553 15.62184387 84.2510553 16.73738098 84.25697327 C19.94947397 84.25108492 22.52304101 84.14287305 25.59089661 83.12025452 C25.61789385 80.8494861 25.63729113 78.5786263 25.65339661 76.30775452 C25.66499817 75.0431842 25.67659973 73.77861389 25.68855286 72.47572327 C25.75248776 69.12420215 25.75248776 69.12420215 24.59089661 66.12025452 C22.54590451 65.39190117 20.49333907 64.68107611 18.4165802 64.04896545 C12.75294166 62.18751038 7.35001564 59.65610166 1.90339661 57.24525452 C0.10805481 56.46988342 0.10805481 56.46988342 -1.72355652 55.67884827 C-15.6984331 49.50408365 -15.6984331 49.50408365 -18.53361511 43.89588928 C-20.13642091 38.8143781 -19.74173953 33.54184947 -19.72477722 28.25526428 C-19.72161777 26.19214497 -19.74510275 24.13046249 -19.77043152 22.06752014 C-19.77107605 20.75589905 -19.77172058 19.44427795 -19.77238464 18.09291077 C-19.7753656 16.89931946 -19.77834656 15.70572815 -19.78141785 14.47596741 C-19.22564477 9.46672091 -17.59646553 6.2185645 -13.90910339 2.80775452 C-9.38980402 -0.24277256 -5.25519625 -0.01875598 0 0 Z " fill="#169687" transform="translate(73.40910339355469,118.87974548339844)"/>
<path d="M0 0 C9.57 0 19.14 0 29 0 C29.06058594 4.46402344 29.12117188 8.92804688 29.18359375 13.52734375 C29.23452916 17.07737853 29.28645074 20.62739583 29.33904266 24.17740631 C29.39436399 27.93000851 29.4479303 31.68261731 29.49731445 35.43530273 C29.54490835 39.04688586 29.59724906 42.65837132 29.65294075 46.26983833 C29.67338694 47.65057519 29.69209622 49.03133886 29.70907402 50.41212273 C29.7330678 52.33983314 29.76370264 54.26745749 29.79467773 56.19506836 C29.81799416 57.84387245 29.81799416 57.84387245 29.84178162 59.52598572 C29.72288192 61.94306073 29.72288192 61.94306073 31 63 C35.95 63 40.9 63 46 63 C46.33 46.83 46.66 30.66 47 14 C44.69 14 42.38 14 40 14 C40 9.38 40 4.76 40 0 C49.57 0 59.14 0 69 0 C69.06779008 12.5435985 69.12282454 25.08707524 69.15543652 37.63081551 C69.171089 43.45544366 69.19231994 49.27993993 69.22631836 55.10449219 C69.25892626 60.72603527 69.27685616 66.34745152 69.28463173 71.96908188 C69.29017263 74.11327994 69.30099263 76.2574711 69.31719017 78.40161514 C69.33898315 81.40607934 69.3419661 84.4100202 69.34057617 87.41455078 C69.351362 88.30000076 69.36214783 89.18545074 69.3732605 90.09773254 C69.34809323 95.12888158 68.88642021 98.6880758 66 103 C61.04434054 107.1422792 55.17935632 107.59517196 48.96875 107.53125 C48.13339722 107.5350769 47.29804443 107.53890381 46.43737793 107.54284668 C44.6826862 107.54555163 42.92795317 107.5382904 41.17333984 107.52148438 C38.50656167 107.50005273 35.84247689 107.52133288 33.17578125 107.546875 C31.46093163 107.54423147 29.74608366 107.53910597 28.03125 107.53125 C26.85121399 107.54339539 26.85121399 107.54339539 25.64733887 107.55578613 C20.00661004 107.46150792 15.74190706 106.09285846 11 103 C6.83672982 98.56813174 6.86760415 94.11509258 6.9375 88.3125 C6.958125 85.899375 6.97875 83.48625 7 81 C14.26 81 21.52 81 29 81 C29.33 84.63 29.66 88.26 30 92 C37.92 91.505 37.92 91.505 46 91 C46.33 86.05 46.66 81.1 47 76 C45.52789062 76.02320313 44.05578125 76.04640625 42.5390625 76.0703125 C40.56771345 76.08908725 38.59635886 76.10728561 36.625 76.125 C35.65949219 76.14175781 34.69398438 76.15851563 33.69921875 76.17578125 C17.4630784 76.28474863 17.4630784 76.28474863 11.5 71.6875 C7.77407538 67.68213104 6.74555501 64.25288594 6.77294922 58.8425293 C6.77317581 57.34153938 6.77317581 57.34153938 6.77340698 55.81022644 C6.78372955 54.7423439 6.79405212 53.67446136 6.8046875 52.57421875 C6.8075174 51.47149124 6.81034729 50.36876373 6.81326294 49.23262024 C6.82444019 45.71746886 6.84954063 42.20257411 6.875 38.6875 C6.88503296 36.30143598 6.89415826 33.91536795 6.90234375 31.52929688 C6.92437151 25.68611065 6.95782486 19.84307366 7 14 C4.69 14 2.38 14 0 14 C0 9.38 0 4.76 0 0 Z " fill="#169687" transform="translate(126,143)"/>
<path d="M0 0 C14.85 0 29.7 0 45 0 C45 4.62 45 9.24 45 14 C42.69 14.33 40.38 14.66 38 15 C40.31 17.97 42.62 20.94 45 24 C46.11375 23.071875 47.2275 22.14375 48.375 21.1875 C49.00148438 20.66542969 49.62796875 20.14335937 50.2734375 19.60546875 C52.2221048 17.91774261 52.2221048 17.91774261 54 15 C51.525 14.505 51.525 14.505 49 14 C49 9.38 49 4.76 49 0 C60.22 0 71.44 0 83 0 C83 4.62 83 9.24 83 14 C81.55882812 13.96777344 80.11765625 13.93554688 78.6328125 13.90234375 C71.31717887 14.63390711 67.62754982 19.37417562 62.875 24.5625 C62.01390625 25.46419922 61.1528125 26.36589844 60.265625 27.29492188 C58.15516357 29.51090637 56.06862233 31.74502964 54 34 C56.11061291 38.42758893 59.02877072 42.08557156 62.05078125 45.91503906 C64.08871349 48.50466868 66.04314766 51.065219 67.86328125 53.81640625 C70.87517956 58.4144074 70.87517956 58.4144074 75.65234375 60.76953125 C78.72710533 61.14844959 78.72710533 61.14844959 83 61 C83 65.62 83 70.24 83 75 C68.15 75 53.3 75 38 75 C38 70.38 38 65.76 38 61 C40.97 60.505 40.97 60.505 44 60 C42.02 57.36 40.04 54.72 38 52 C36.88625 52.94875 35.7725 53.8975 34.625 54.875 C33.99851562 55.40867188 33.37203125 55.94234375 32.7265625 56.4921875 C31.44163349 57.61432007 30.20628025 58.79371975 29 60 C30.65 60.33 32.3 60.66 34 61 C34 65.62 34 70.24 34 75 C22.78 75 11.56 75 0 75 C0 70.38 0 65.76 0 61 C3.96 61 7.92 61 12 61 C12.66 59.68 13.32 58.36 14 57 C15.38867188 55.41601562 15.38867188 55.41601562 16.96875 53.90625 C17.53980469 53.35066406 18.11085938 52.79507813 18.69921875 52.22265625 C19.89973958 51.07421875 21.10026042 49.92578125 22.30078125 48.77734375 C22.87183594 48.22175781 23.44289063 47.66617188 24.03125 47.09375 C24.55267578 46.59552734 25.07410156 46.09730469 25.61132812 45.58398438 C27.13969941 43.84065229 28.05043634 42.10634624 29 40 C28.19949219 39.03513672 28.19949219 39.03513672 27.3828125 38.05078125 C22.99827443 32.73320134 18.67265137 27.37472519 14.4375 21.9375 C13.99615723 21.37780518 13.55481445 20.81811035 13.10009766 20.24145508 C10 16.23300541 10 16.23300541 10 14 C6.7 14 3.4 14 0 14 C0 9.38 0 4.76 0 0 Z " fill="#015886" transform="translate(410,143)"/>
<path d="M0 0 C9.57 0 19.14 0 29 0 C29.33 2.64 29.66 5.28 30 8 C30.47308594 7.67386719 30.94617188 7.34773437 31.43359375 7.01171875 C38.87967753 2.09120725 45.97887023 -0.88732424 55 0 C59.73007133 1.72829529 62.23409349 3.81860898 65 8 C65.48101807 11.14485168 65.48101807 11.14485168 65.45410156 14.71801758 C65.45468567 15.37223694 65.45526978 16.0264563 65.45587158 16.70050049 C65.4530991 18.84906273 65.42205079 20.99621337 65.390625 23.14453125 C65.38315954 24.63953392 65.37746804 26.13454641 65.37347412 27.62956238 C65.35824155 31.55397824 65.31898118 35.47779679 65.2746582 39.40197754 C65.23365361 43.41048096 65.21545209 47.41908143 65.1953125 51.42773438 C65.15248362 59.28546018 65.08215416 67.14258684 65 75 C57.74 75 50.48 75 43 75 C42.67 55.53 42.34 36.06 42 16 C37.82913546 18.50251872 35.27109374 20.55209038 32 24 C31.34 24.66 30.68 25.32 30 26 C29.75456859 28.64787789 29.62650614 31.19903823 29.5859375 33.8515625 C29.56657135 34.62559418 29.5472052 35.39962585 29.5272522 36.19711304 C29.4674017 38.67296275 29.42104989 41.14885883 29.375 43.625 C29.33682518 45.30210377 29.29777375 46.97918784 29.2578125 48.65625 C29.16169591 52.77067353 29.07768561 56.88518886 29 61 C30.98 61 32.96 61 35 61 C35 65.62 35 70.24 35 75 C23.45 75 11.9 75 0 75 C0 70.38 0 65.76 0 61 C2.31 61 4.62 61 7 61 C7 45.49 7 29.98 7 14 C4.69 14 2.38 14 0 14 C0 9.38 0 4.76 0 0 Z " fill="#169687" transform="translate(203,143)"/>
<path d="M0 0 C0.7493985 -0.00428513 1.498797 -0.00857025 2.27090454 -0.01298523 C3.84921259 -0.01870247 5.42754698 -0.0192481 7.00585938 -0.01489258 C9.40020474 -0.01173701 11.79330741 -0.0352076 14.1875 -0.06054688 C15.72916513 -0.06282084 17.27083354 -0.06352291 18.8125 -0.0625 C19.51796967 -0.07170975 20.22343933 -0.08091949 20.95028687 -0.09040833 C27.11706329 -0.03398347 32.60308715 1.30203224 37.4765625 5.30078125 C40.55247853 9.23795377 40.17056208 13.27639528 40.13671875 18.03125 C40.13571167 18.69660767 40.13470459 19.36196533 40.13366699 20.04748535 C40.12844356 22.52776824 40.11448228 25.00802651 40.1015625 27.48828125 C40.0809375 33.03640625 40.0603125 38.58453125 40.0390625 44.30078125 C27.1690625 44.30078125 14.2990625 44.30078125 1.0390625 44.30078125 C1.3690625 50.57078125 1.6990625 56.84078125 2.0390625 63.30078125 C6.9890625 63.63078125 11.9390625 63.96078125 17.0390625 64.30078125 C17.3690625 59.68078125 17.6990625 55.06078125 18.0390625 50.30078125 C25.2990625 50.30078125 32.5590625 50.30078125 40.0390625 50.30078125 C40.84263393 66.50613839 40.84263393 66.50613839 37.3515625 70.67578125 C32.33112055 75.52757786 26.60211729 75.60879648 20.01171875 75.6015625 C19.14518173 75.60584763 18.27864471 75.61013275 17.385849 75.61454773 C15.55777864 75.62027668 13.72968549 75.62080189 11.90161133 75.61645508 C9.11434814 75.61329574 6.3281477 75.63676957 3.54101562 75.66210938 C1.760418 75.66438268 -0.02018247 75.66508572 -1.80078125 75.6640625 C-2.62907944 75.67327225 -3.45737762 75.68248199 -4.31077576 75.69197083 C-9.26071778 75.65265606 -12.68639157 75.06757088 -16.9609375 72.30078125 C-20.52910758 67.67180385 -22.07715206 64.17111612 -22.12207031 58.3737793 C-22.13167786 57.37231369 -22.1412854 56.37084808 -22.15118408 55.33903503 C-22.15543396 54.25777847 -22.15968384 53.17652191 -22.1640625 52.0625 C-22.16976257 50.94897659 -22.17546265 49.83545319 -22.18133545 48.68818665 C-22.19078659 46.33030142 -22.19731988 43.97240298 -22.20117188 41.61450195 C-22.21087107 38.01294817 -22.2418915 34.41196655 -22.2734375 30.81054688 C-22.27996828 28.51953464 -22.28521846 26.22851832 -22.2890625 23.9375 C-22.3014093 22.86231613 -22.3137561 21.78713226 -22.32647705 20.67936707 C-22.31003155 15.13968932 -22.15708784 11.05032216 -18.9609375 6.30078125 C-13.40978653 0.89966139 -7.50947418 -0.00964625 0 0 Z M1.0390625 13.30078125 C0.95205908 14.93551007 0.93205187 16.5739218 0.94140625 18.2109375 C0.94462891 19.20029297 0.94785156 20.18964844 0.95117188 21.20898438 C0.95955078 22.24990234 0.96792969 23.29082031 0.9765625 24.36328125 C0.98107422 25.40806641 0.98558594 26.45285156 0.99023438 27.52929688 C1.00206323 30.11981579 1.01999931 32.71030547 1.0390625 35.30078125 C6.6490625 35.30078125 12.2590625 35.30078125 18.0390625 35.30078125 C18.06589237 31.65489956 18.08581819 28.00921279 18.1015625 24.36328125 C18.10994141 23.32236328 18.11832031 22.28144531 18.12695312 21.20898438 C18.13017578 20.21962891 18.13339844 19.23027344 18.13671875 18.2109375 C18.14195557 17.29449463 18.14719238 16.37805176 18.15258789 15.43383789 C18.27827461 13.31715102 18.27827461 13.31715102 17.0390625 12.30078125 C14.52770146 12.20103093 12.05002835 12.16195942 9.5390625 12.17578125 C8.83652344 12.17191406 8.13398438 12.16804688 7.41015625 12.1640625 C3.93477442 11.85687194 3.93477442 11.85687194 1.0390625 13.30078125 Z " fill="#015886" transform="translate(172.9609375,31.69921875)"/>
<path d="M0 0 C2.1968371 -0.00970549 4.39273743 -0.04076584 6.58935547 -0.07226562 C8.00211039 -0.07879716 9.41487193 -0.08404704 10.82763672 -0.08789062 C12.73585205 -0.10190918 12.73585205 -0.10190918 14.68261719 -0.11621094 C20.04258792 0.40681789 23.96082315 1.75708519 27.71044922 5.80273438 C30.02540248 9.27516427 30.45916826 11.01030203 30.44897461 15.14892578 C30.44889908 16.16983307 30.44882355 17.19074036 30.44874573 18.24258423 C30.44358444 19.3478244 30.43842316 20.45306458 30.43310547 21.59179688 C30.43169052 22.72096527 30.43027557 23.85013367 30.42881775 25.01351929 C30.42320665 28.63078426 30.41065224 32.24798802 30.39794922 35.86523438 C30.39293565 38.31315015 30.38837249 40.76106689 30.38427734 43.20898438 C30.37323362 49.21942204 30.35648465 55.22982383 30.33544922 61.24023438 C32.31544922 61.24023438 34.29544922 61.24023438 36.33544922 61.24023438 C36.33544922 65.86023438 36.33544922 70.48023438 36.33544922 75.24023438 C28.73659399 75.31440109 21.13794957 75.36884526 13.53881836 75.4050293 C10.95382009 75.420114 8.3688474 75.44058439 5.78393555 75.46655273 C2.06796961 75.50294879 -1.64765785 75.51996422 -5.36376953 75.53320312 C-6.51914719 75.54868698 -7.67452484 75.56417084 -8.86491394 75.5801239 C-10.48602837 75.58046379 -10.48602837 75.58046379 -12.13989258 75.58081055 C-13.56219429 75.5908033 -13.56219429 75.5908033 -15.01322937 75.60099792 C-19.4210455 75.0012293 -21.98850722 72.99139389 -24.91455078 69.74023438 C-28.73244288 64.28610281 -27.8856841 58.27363756 -27.91455078 51.86523438 C-27.93517578 50.72828125 -27.95580078 49.59132812 -27.97705078 48.41992188 C-27.98220703 47.32164062 -27.98736328 46.22335938 -27.99267578 45.09179688 C-28.00202148 44.08971191 -28.01136719 43.08762695 -28.02099609 42.05517578 C-27.49296085 37.885144 -25.80070972 35.23437345 -22.66455078 32.49023438 C-18.96964706 30.18091955 -15.9391083 30.1218219 -11.68408203 30.14257812 C-10.52070313 30.14580078 -9.35732422 30.14902344 -8.15869141 30.15234375 C-6.94375 30.16072266 -5.72880859 30.16910156 -4.47705078 30.17773438 C-3.25050781 30.18224609 -2.02396484 30.18675781 -0.76025391 30.19140625 C2.27166787 30.20320361 5.30356462 30.22113923 8.33544922 30.24023438 C8.00544922 24.63023437 7.67544922 19.02023438 7.33544922 13.24023438 C3.37544922 12.91023437 -0.58455078 12.58023438 -4.66455078 12.24023438 C-4.66455078 16.53023437 -4.66455078 20.82023437 -4.66455078 25.24023438 C-12.25455078 25.24023438 -19.84455078 25.24023438 -27.66455078 25.24023438 C-27.74705078 22.88898438 -27.82955078 20.53773438 -27.91455078 18.11523438 C-27.9509668 17.38675293 -27.98738281 16.65827148 -28.02490234 15.90771484 C-28.11010652 10.84081478 -26.82703243 8.11962228 -23.66455078 4.24023438 C-16.68970111 -0.94619231 -8.29689065 0.02217926 0 0 Z M-4.66455078 40.24023438 C-4.69342314 44.05271864 -4.7113057 47.86517507 -4.72705078 51.67773438 C-4.73542969 52.76634766 -4.74380859 53.85496094 -4.75244141 54.9765625 C-4.75566406 56.01103516 -4.75888672 57.04550781 -4.76220703 58.11132812 C-4.76744385 59.06966553 -4.77268066 60.02800293 -4.77807617 61.01538086 C-4.91508208 63.21308777 -4.91508208 63.21308777 -3.66455078 64.24023438 C0.29544922 64.24023438 4.25544922 64.24023438 8.33544922 64.24023438 C8.33544922 55.99023438 8.33544922 47.74023438 8.33544922 39.24023438 C-1.39744559 38.42034278 -1.39744559 38.42034278 -4.66455078 40.24023438 Z " fill="#015886" transform="translate(367.66455078125,142.759765625)"/>
<path d="M0 0 C1.09860603 -0.0049926 1.09860603 -0.0049926 2.21940613 -0.01008606 C3.76678848 -0.01513913 5.31418168 -0.01749489 6.86157227 -0.01733398 C9.21193728 -0.01951406 11.56182771 -0.03766886 13.91210938 -0.05664062 C15.42057132 -0.05957629 16.92903549 -0.06155993 18.4375 -0.0625 C19.13253128 -0.06968552 19.82756256 -0.07687103 20.5436554 -0.08427429 C26.52424619 -0.05669899 31.54142247 0.6250307 36.23046875 4.48046875 C40.24085142 9.40751031 40.66335584 13.37188855 40.61328125 19.65625 C40.60828613 20.94313721 40.60329102 22.23002441 40.59814453 23.5559082 C40.57993652 25.18101318 40.56172852 26.80611816 40.54296875 28.48046875 C40.50171875 33.65734375 40.46046875 38.83421875 40.41796875 44.16796875 C27.21796875 44.16796875 14.01796875 44.16796875 0.41796875 44.16796875 C0.74796875 50.43796875 1.07796875 56.70796875 1.41796875 63.16796875 C6.36796875 63.16796875 11.31796875 63.16796875 16.41796875 63.16796875 C16.74796875 58.87796875 17.07796875 54.58796875 17.41796875 50.16796875 C25.00796875 50.16796875 32.59796875 50.16796875 40.41796875 50.16796875 C40.87609683 64.98077663 40.87609683 64.98077663 37.41796875 70.16796875 C31.89089833 74.85275156 26.96739062 75.90919629 19.87890625 75.796875 C18.99441803 75.79928696 18.10992981 75.80169891 17.19863892 75.80418396 C15.34136439 75.80321028 13.48405911 75.78993185 11.62695312 75.76489258 C8.79326529 75.73047235 5.96268248 75.74428598 3.12890625 75.76367188 C1.31639306 75.75677528 -0.49611214 75.74710458 -2.30859375 75.734375 C-3.14935455 75.73933487 -3.99011536 75.74429474 -4.85635376 75.74940491 C-10.23222738 75.64226082 -13.35288627 74.7742254 -17.58203125 71.16796875 C-18.35482422 70.51884521 -19.12761719 69.86972168 -19.92382812 69.20092773 C-22.63081144 64.24968308 -22.15134675 59.18950062 -22.11328125 53.640625 C-22.11710815 52.41895126 -22.12093506 51.19727753 -22.12487793 49.93858337 C-22.12759766 47.35724055 -22.12023237 44.7758702 -22.10351562 42.19458008 C-22.08212753 38.24823351 -22.10330816 34.30371148 -22.12890625 30.35742188 C-22.12626263 27.84765224 -22.12113694 25.33788373 -22.11328125 22.828125 C-22.12137817 21.64984634 -22.1294751 20.47156769 -22.13781738 19.25758362 C-22.06606128 12.97144537 -21.94700357 8.87277969 -17.58203125 4.16796875 C-11.71036422 0.62050326 -6.74719969 0.01070946 0 0 Z M0.41796875 13.16796875 C0.33096533 14.80269757 0.31095812 16.4411093 0.3203125 18.078125 C0.32353516 19.06748047 0.32675781 20.05683594 0.33007812 21.07617188 C0.33845703 22.11708984 0.34683594 23.15800781 0.35546875 24.23046875 C0.35998047 25.27525391 0.36449219 26.32003906 0.36914062 27.39648438 C0.38096948 29.98700329 0.39890556 32.57749297 0.41796875 35.16796875 C6.02796875 35.16796875 11.63796875 35.16796875 17.41796875 35.16796875 C17.44479862 31.52208706 17.46472444 27.87640029 17.48046875 24.23046875 C17.48884766 23.18955078 17.49722656 22.14863281 17.50585938 21.07617188 C17.50908203 20.08681641 17.51230469 19.09746094 17.515625 18.078125 C17.52086182 17.16168213 17.52609863 16.24523926 17.53149414 15.30102539 C17.65718086 13.18433852 17.65718086 13.18433852 16.41796875 12.16796875 C13.90660771 12.06821843 11.4289346 12.02914692 8.91796875 12.04296875 C8.21542969 12.03910156 7.51289063 12.03523438 6.7890625 12.03125 C3.31368067 11.72405944 3.31368067 11.72405944 0.41796875 13.16796875 Z " fill="#169687" transform="translate(498.58203125,31.83203125)"/>
<path d="M0 0 C2.18585497 -0.00969015 4.37076228 -0.04074324 6.55639648 -0.07226562 C13.67836975 -0.12644254 19.92147956 -0.10799092 26.39038086 3.24023438 C29.90707832 6.87037369 30.5160695 10.33633549 30.50390625 15.26245117 C30.50383072 16.28328293 30.50375519 17.30411469 30.50367737 18.35588074 C30.49851608 19.45595963 30.4933548 20.55603851 30.48803711 21.68945312 C30.48662216 22.81720657 30.48520721 23.94496002 30.48374939 25.10688782 C30.47814556 28.71386349 30.46559239 32.32077742 30.45288086 35.92773438 C30.44786635 38.37109285 30.44330336 40.81445231 30.43920898 43.2578125 C30.42817489 49.25197425 30.41143301 55.2460999 30.39038086 61.24023438 C32.37038086 61.24023438 34.35038086 61.24023438 36.39038086 61.24023438 C36.39038086 65.86023438 36.39038086 70.48023437 36.39038086 75.24023438 C28.8098531 75.33920682 21.22970255 75.41175401 13.64868164 75.45996094 C11.07048998 75.48006 8.49234382 75.50734379 5.91430664 75.54199219 C2.20569625 75.59058284 -1.5023107 75.61322095 -5.21118164 75.63085938 C-6.9365062 75.66182709 -6.9365062 75.66182709 -8.69668579 75.69342041 C-14.98809723 75.69517931 -18.85063926 75.51526704 -23.60961914 71.24023438 C-28.67005672 65.65630326 -27.82412285 58.99998841 -27.85961914 51.86523438 C-27.88024414 50.8365625 -27.90086914 49.80789062 -27.92211914 48.74804688 C-27.95090002 43.16455632 -27.83755137 39.0272892 -24.60961914 34.24023438 C-20.52969571 30.54280377 -17.00518168 30.11635358 -11.62915039 30.14257812 C-10.46577148 30.14580078 -9.30239258 30.14902344 -8.10375977 30.15234375 C-6.88881836 30.16072266 -5.67387695 30.16910156 -4.42211914 30.17773438 C-3.19557617 30.18224609 -1.9690332 30.18675781 -0.70532227 30.19140625 C2.32659951 30.20320361 5.35849626 30.22113923 8.39038086 30.24023438 C8.06038086 24.63023438 7.73038086 19.02023438 7.39038086 13.24023438 C3.43038086 12.91023438 -0.52961914 12.58023438 -4.60961914 12.24023438 C-4.60961914 16.53023437 -4.60961914 20.82023437 -4.60961914 25.24023438 C-12.19961914 25.24023438 -19.78961914 25.24023438 -27.60961914 25.24023438 C-28.06094657 10.64731402 -28.06094657 10.64731402 -24.60961914 5.24023438 C-17.24935237 -0.839986 -9.0756664 0.02432883 0 0 Z M-4.60961914 40.24023438 C-4.6384915 44.05271864 -4.65637406 47.86517507 -4.67211914 51.67773438 C-4.68049805 52.76634766 -4.68887695 53.85496094 -4.69750977 54.9765625 C-4.70073242 56.01103516 -4.70395508 57.04550781 -4.70727539 58.11132812 C-4.71251221 59.06966553 -4.71774902 60.02800293 -4.72314453 61.01538086 C-4.86015044 63.21308777 -4.86015044 63.21308777 -3.60961914 64.24023438 C0.35038086 64.24023438 4.31038086 64.24023438 8.39038086 64.24023438 C8.39038086 55.99023438 8.39038086 47.74023438 8.39038086 39.24023438 C-1.34251395 38.42034278 -1.34251395 38.42034278 -4.60961914 40.24023438 Z " fill="#015886" transform="translate(246.609619140625,31.759765625)"/>
<path d="M0 0 C7.26 0 14.52 0 22 0 C22 7.92 22 15.84 22 24 C31.9 24 41.8 24 52 24 C52 28.62 52 33.24 52 38 C42.1 38 32.2 38 22 38 C22.33 52.85 22.66 67.7 23 83 C24.98 83 26.96 83 29 83 C29.33 79.7 29.66 76.4 30 73 C37.26 73 44.52 73 52 73 C52.0825 75.51625 52.165 78.0325 52.25 80.625 C52.28641602 81.40568848 52.32283203 82.18637695 52.36035156 82.99072266 C52.4410423 88.11718739 51.33227238 90.91627248 48 95 C42.13616915 100.15306348 35.28035813 99.25408106 27.91357422 99.29516602 C26.47825242 99.30666543 25.0429727 99.32708536 23.60791016 99.35668945 C8.36047691 99.67105141 8.36047691 99.67105141 3 95 C-0.84484508 89.37859878 -0.38641859 83.80367752 -0.29296875 77.2578125 C-0.28872391 76.13430389 -0.28447906 75.01079529 -0.28010559 73.85324097 C-0.2633589 70.27691337 -0.22571296 66.70115631 -0.1875 63.125 C-0.17244803 60.69532066 -0.15876052 58.26563245 -0.14648438 55.8359375 C-0.11346846 49.89043146 -0.0633085 43.9452565 0 38 C-2.31 38 -4.62 38 -7 38 C-7 33.38 -7 28.76 -7 24 C-4.69 24 -2.38 24 0 24 C0 16.08 0 8.16 0 0 Z " fill="#015886" transform="translate(283,119)"/>
<path d="M0 0 C7.26 0 14.52 0 22 0 C22 7.92 22 15.84 22 24 C31.9 24 41.8 24 52 24 C52 28.62 52 33.24 52 38 C42.1 38 32.2 38 22 38 C22.33 53.18 22.66 68.36 23 84 C25.97 83.505 25.97 83.505 29 83 C29.33 79.7 29.66 76.4 30 73 C37.26 73 44.52 73 52 73 C52.061875 75.536875 52.12375 78.07375 52.1875 80.6875 C52.22846802 81.87218872 52.22846802 81.87218872 52.27026367 83.08081055 C52.32373357 87.6280515 51.79102225 90.40017796 49 94 C42.50460063 99.84585943 36.20026361 99.2489507 27.91357422 99.29516602 C26.47825242 99.30666543 25.0429727 99.32708536 23.60791016 99.35668945 C8.2250402 99.67384376 8.2250402 99.67384376 3 95 C-0.46853915 88.85400104 -0.39466744 83.32500972 -0.29296875 76.37890625 C-0.28872391 75.27900864 -0.28447906 74.17911102 -0.28010559 73.04588318 C-0.26338402 69.55116755 -0.22574295 66.05703979 -0.1875 62.5625 C-0.17244478 60.18555523 -0.15875784 57.80860138 -0.14648438 55.43164062 C-0.11350185 49.62089497 -0.0633673 43.8104895 0 38 C-2.31 38 -4.62 38 -7 38 C-7 33.38 -7 28.76 -7 24 C-4.69 24 -2.38 24 0 24 C0 16.08 0 8.16 0 0 Z " fill="#169687" transform="translate(293,8)"/>
<path d="M0 0 C12.54 0 25.08 0 38 0 C38 4.62 38 9.24 38 14 C35.69 14 33.38 14 31 14 C34.3 21.92 37.6 29.84 41 38 C42.70660635 35.44009047 43.91918622 33.12411092 45.1640625 30.33203125 C45.56367188 29.43935547 45.96328125 28.54667969 46.375 27.62695312 C46.7875 26.69818359 47.2 25.76941406 47.625 24.8125 C48.25535156 23.40194336 48.25535156 23.40194336 48.8984375 21.96289062 C49.93473256 19.64300282 50.96848576 17.32201653 52 15 C50.02 14.67 48.04 14.34 46 14 C46 9.38 46 4.76 46 0 C55.24 0 64.48 0 74 0 C74 4.62 74 9.24 74 14 C72.02 14.33 70.04 14.66 68 15 C66.45712387 16.65732486 66.45712387 16.65732486 65.60644531 18.90551758 C65.23295959 19.73340286 64.85947388 20.56128815 64.47467041 21.41426086 C64.09631042 22.31525009 63.71795044 23.21623932 63.328125 24.14453125 C62.71538727 25.52652962 62.71538727 25.52652962 62.090271 26.93644714 C60.78824396 29.8860646 59.51882341 32.84846894 58.25 35.8125 C57.38104925 37.79846508 56.50997964 39.7835045 55.63671875 41.76757812 C53.71167056 46.14700493 51.80754412 50.53488985 49.92144775 54.93122864 C49.00797025 56.98210575 48.00404563 58.99190875 47 61 C50.3 61 53.6 61 57 61 C57 65.62 57 70.24 57 75 C43.14 75 29.28 75 15 75 C15 70.38 15 65.76 15 61 C18.3 61 21.6 61 25 61 C24.45472656 59.64729004 23.90945313 58.29458008 23.34765625 56.90087891 C21.33148841 51.89657499 19.3198383 46.89046558 17.30957031 41.88378906 C16.43776217 39.71434554 15.56471854 37.5453981 14.69042969 35.37695312 C13.43622293 32.26561028 12.18642494 29.15252862 10.9375 26.0390625 C10.54377197 25.065065 10.15004395 24.0910675 9.74438477 23.08755493 C9.38401123 22.18677216 9.0236377 21.28598938 8.65234375 20.35791016 C8.33257568 19.56293121 8.01280762 18.76795227 7.68334961 17.94888306 C7 16 7 16 7 14 C4.69 14 2.38 14 0 14 C0 9.38 0 4.76 0 0 Z " fill="#169687" transform="translate(397,32)"/>
<path d="M0 0 C9.57 0 19.14 0 29 0 C29.33 2.64 29.66 5.28 30 8 C30.56847656 7.59007812 31.13695313 7.18015625 31.72265625 6.7578125 C38.51208536 2.01994711 44.4981288 -0.89493381 53 0 C56.50334595 1.23572566 59.93149165 2.4471934 62.09399414 5.58984375 C63.37007095 8.98446252 63.24633086 12.25445073 63.1953125 15.828125 C63.1924826 16.57713074 63.18965271 17.32613647 63.18673706 18.09783936 C63.1755726 20.48205776 63.15047531 22.86589579 63.125 25.25 C63.11496535 26.86978623 63.10584035 28.48957836 63.09765625 30.109375 C63.07734987 34.07317989 63.0381954 38.03616589 63 42 C55.74 42 48.48 42 41 42 C41 33.42 41 24.84 41 16 C34.26876878 19.85580904 34.26876878 19.85580904 30 26 C29.11500544 31.98016482 29.11300115 37.90267724 29.125 43.9375 C29.10685795 45.59182858 29.08605052 47.2461302 29.0625 48.90039062 C29.01085038 52.93393676 28.99555498 56.96614149 29 61 C30.98 61 32.96 61 35 61 C35 65.62 35 70.24 35 75 C23.45 75 11.9 75 0 75 C0 70.38 0 65.76 0 61 C2.31 61 4.62 61 7 61 C7 45.49 7 29.98 7 14 C4.69 14 2.38 14 0 14 C0 9.38 0 4.76 0 0 Z " fill="#015886" transform="translate(82,32)"/>
<path d="M0 0 C62.7 0 125.4 0 190 0 C190 4.95 190 9.9 190 15 C127.3 15 64.6 15 0 15 C0 10.05 0 5.1 0 0 Z " fill="#015886" transform="translate(313,119)"/>
<path d="M0 0 C49.5 0 99 0 150 0 C150 4.95 150 9.9 150 15 C100.5 15 51 15 0 15 C0 10.05 0 5.1 0 0 Z " fill="#169687" transform="translate(397,8)"/>
<path d="M0 0 C11.88 0 23.76 0 36 0 C36 4.62 36 9.24 36 14 C33.69 14 31.38 14 29 14 C29 29.51 29 45.02 29 61 C31.31 61 33.62 61 36 61 C36 65.62 36 70.24 36 75 C24.12 75 12.24 75 0 75 C0 70.38 0 65.76 0 61 C2.31 61 4.62 61 7 61 C7 45.49 7 29.98 7 14 C4.69 14 2.38 14 0 14 C0 9.38 0 4.76 0 0 Z " fill="#169687" transform="translate(356,32)"/>
<path d="M0 0 C2 2 2 2 2.5 4.375 C2 7 2 7 -0.75 9.25 C-8.51549614 13.431421 -19.2632583 13.15052219 -27.82421875 11.43359375 C-31.39139907 10.17420107 -32.87360179 9.18959731 -35 6 C-34.9375 3.5 -34.9375 3.5 -34 1 C-25.35062753 -5.54547105 -9.31365988 -4.94194198 0 0 Z " fill="#169687" transform="translate(390,11)"/>
<path d="M0 0 C9.9 0 19.8 0 30 0 C30 4.95 30 9.9 30 15 C20.1 15 10.2 15 0 15 C0 10.05 0 5.1 0 0 Z " fill="#169687" transform="translate(323,8)"/>
</svg>
